# xmcd
#
# Track frame offsets:
#	150
#	21123
#	34948
#	52404
#	68714
#	81473
#	97351
#	114705
#	135263
#	152851
#
# Disc length: 2259 seconds
#
# Revision: 1
# Processed by: cddbd v1.5.2PL0 Copyright (c) Steve Scherf et al.
# Submitted via: audiograbber 1.83.01
#
DISCID=9008d10a
DTITLE=Ride On The Train - Hollis Brown
DYEAR=2013
DGENRE=Blues
TTITLE0=Ride On The Train
TTITLE1=Down On Your Luck
TTITLE2=When The Weather's Warm
TTITLE3=Nothing and The Famous No One
TTITLE4=Doghouse Blues
TTITLE5=Gypsy Black Cat
TTITLE6=Faith and Love
TTITLE7=If It Ain't Me
TTITLE8=Walk On Water
TTITLE9=Nightfall
EXTD=
EXTT0=
EXTT1=
EXTT2=
EXTT3=
EXTT4=
EXTT5=
EXTT6=
EXTT7=
EXTT8=
EXTT9=
PLAYORDER=
